
<svg xmlns="http://www.w3.org/2000/svg" viewBox="0 0 529.6 53.6" xml:space="preserve"><path fill="#2b2b2b" d="m11.8 48.9 2.9-.3c1.9-.2 2.6-.8 2.6-1.4v-43h-1.5c-5.7.3-9.1 5.5-10.9 10.5l-.7 2.7H2.6L4.2 2.7H39l.8 14.6h-1.5l-.7-2.7C35.8 9.3 32.5 4.3 26.9 4.3h-1.6v43.2c0 .6.4.8 3.1 1.1l2.4.3.2 1.2H11.6l.2-1.2zM41.2 49.1l2-.3c1.7-.3 2.4-.7 2.4-1.2V10.7c0-.5-.3-.7-2.8-1l-1.5-.3-.2-1.1h16L57 9.5l-2 .3c-1.7.3-2.4.7-2.4 1.2v17.2h15.1V10.7c0-.5-.3-.7-2.8-1l-1.6-.3-.2-1.1h16l-.2 1.1-2 .3c-1.7.3-2.3.7-2.3 1.2v36.8c0 .5.3.7 2.8 1l1.5.3.2 1.1h-16l.2-1.1 2-.3c1.7-.3 2.3-.7 2.3-1.2v-18h-15v18.2c0 .5.3.7 2.8 1l1.6.3.2 1.1h-16v-1zM80.2 49.1l1.9-.3c1.7-.3 2.4-.7 2.4-1.2V10.7c0-.5-.3-.7-2.8-1l-1.5-.3-.2-1.1h28.2l.4 13.7h-1.4l-.5-2.2c-1.7-7.7-4.3-10.2-11.5-10.1l-3.6.1v18.3l2-.1c4.3-.2 6.2-1.3 7.1-5l.6-2.1h1.1L101 37l-1.1-.1-.2-2.1c-.3-3.9-1.5-5-6.5-5.3l-1.6-.1v19l4.5.2c7.5-.1 10.4-3.8 12.3-10.3l.5-2h1.4L108.9 50H80l.2-.9zM122.4 48.9l2.3-.3c2-.3 2.7-.8 2.7-1.4V5.4c0-.6-.4-.8-3.2-1.1l-1.8-.3-.2-1.3h16.5c11.7 0 15.9 4.1 15.9 10.5 0 5.6-4 9.4-11.1 10.8v.2c8.1.8 12.9 5.7 12.9 12.6 0 8-5.5 13.3-17.2 13.3h-17.1l.3-1.2zm15-24.9c5.5 0 9-3.7 9-9.9 0-6.5-3.4-9.8-9.2-9.8h-1.8V24h2zm2 24.5c5-.3 8.7-5 8.7-11.3 0-7.3-4.6-11.8-10.4-11.8-.7 0-2 0-2.3.2v21.9l3.3 1.1c-.1.1.9-.1.7-.1zM160.8 36.8V10.7c0-.5-.3-.7-2.7-.9l-1.8-.3-.2-1.1h16.5l-.2 1.1-2.3.3c-1.7.2-2.3.6-2.3 1.1v23.9c0 8.7 3.2 12.9 9.4 12.9s9.5-4.4 9.5-13.7l-.1-18.5c0-4.4-.9-5.5-4-5.8l-1.6-.2-.2-1.1H193l-.2 1.1-1.5.3c-2.5.3-3.4 1.5-3.4 6.1l-.1 18.6c-.1 10.6-4.1 16.8-13.1 16.8-9.3 0-13.9-4.5-13.9-14.5zM192.2 48.8l-.6-11.3h1.3l2.3 6.6c1.9 3.7 4.6 5.5 8.1 5.5 4.5-.1 7.1-3.4 7.1-8.1 0-5.5-3.6-7.5-8.3-9.5-5.3-2.3-9.6-5.1-9.6-12.1 0-6.7 4.5-12.3 11.6-12.3 3 0 5.5.7 7.5 1.4l2.4-.9.2 12.3H213l-3.9-9.6c-1.3-1-2.9-1.7-5.1-1.7-3.7 0-6.2 2.9-6.2 6.6 0 4.8 3.5 6.6 7.8 8.5 5.9 2.5 10.2 5.5 10.2 13.2 0 7.1-5 13.7-12.8 13.7-4.3 0-7.8-1-10.8-2.3z"/><path fill="#2b2b2b" d="m215.8 49.1 2.2-.3c1.7-.2 2.4-.7 2.4-1.2V10.7c0-.5-.3-.7-2.8-1l-1.8-.3-.2-1.1h16.5l-.1 1.2-2.2.3c-1.8.2-2.4.7-2.4 1.2v36.8c0 .5.4.7 2.8 1l1.8.3.2 1.1h-16.4v-1.1zM240.9 15.3h-.2V43c0 4.4.9 5.4 4 5.7l1.6.3.2 1.1h-12.2l.2-1.1 1.5-.3c2.6-.3 3.4-1.5 3.4-6.1l.2-28.2c-1.1-2.3-2.6-4.1-4.7-4.6l-1.1-.4-.2-1.1h12.1l18.8 29.2h.2v-22c0-4.4-.9-5.5-4-5.8l-1.7-.2-.2-1.1H271l-.2 1.1-1.5.3c-2.5.3-3.4 1.5-3.4 6.1l-.2 34.7h-1.9l-22.9-35.3zM272.4 49.1l2-.3c1.7-.3 2.4-.7 2.4-1.2V10.7c0-.5-.3-.7-2.8-1l-1.5-.3-.2-1.1h28.2l.4 13.7h-1.4l-.5-2.2c-1.7-7.7-4.3-10.2-11.5-10.1l-3.6.1v18.3l2-.1c4.3-.2 6.2-1.3 7.1-5l.6-2.1h1.1l-1.4 16-1.1-.1-.2-2.1c-.3-3.9-1.5-5-6.5-5.3l-1.6-.1v19l4.5.2c7.5-.1 10.4-3.8 12.3-10.3l.5-2h1.4l-1.4 13.7h-28.9l.1-.8zM304.6 48.8l-.6-11.4h1.3l2.3 6.6c2 3.7 4.6 5.5 8.1 5.5 4.5-.1 7.1-3.4 7.1-8.1 0-5.5-3.6-7.5-8.3-9.5-5.3-2.3-9.6-5.1-9.6-12.1 0-6.7 4.5-12.3 11.6-12.3 3 0 5.5.7 7.5 1.4l2.4-.9.2 12.3h-1.2l-3.9-9.6c-1.3-1-2.9-1.7-5.1-1.7-3.7 0-6.2 2.9-6.2 6.6 0 4.8 3.5 6.6 7.8 8.5 5.9 2.5 10.2 5.5 10.2 13.2 0 7.1-5 13.7-12.8 13.7-4.3.1-7.9-.9-10.8-2.2zM330.8 48.8l-.6-11.3h1.3l2.3 6.6c2 3.7 4.6 5.5 8.1 5.5 4.5-.1 7.1-3.4 7.1-8.1 0-5.5-3.6-7.5-8.3-9.5-5.3-2.3-9.6-5.1-9.6-12.1 0-6.7 4.5-12.3 11.6-12.3 3 0 5.5.7 7.5 1.4l2.4-.9.2 12.3h-1.2l-3.9-9.6c-1.3-1-2.9-1.7-5.1-1.7-3.7 0-6.2 2.9-6.2 6.6 0 4.8 3.5 6.6 7.8 8.5 5.9 2.5 10.2 5.5 10.2 13.2 0 7.1-5 13.7-12.8 13.7-4.3 0-7.8-1-10.8-2.3zM378.4 48.9l2.9-.3c1.9-.2 2.6-.8 2.6-1.4v-43h-1.5c-5.8.3-9.2 5.5-10.9 10.5l-.7 2.7h-1.7l1.6-14.7h34.8l.8 14.6h-1.5l-.7-2.7c-1.8-5.5-5.1-10.4-10.7-10.5h-1.6v43.2c0 .6.4.8 3.1 1.1l2.4.3.2 1.2h-19.4l.3-1zM408.2 49.1l2.2-.3c1.7-.2 2.4-.7 2.4-1.2V10.7c0-.5-.3-.7-2.8-1l-1.8-.3-.2-1.1h16.5l-.2 1.1-2.2.3c-1.8.2-2.4.7-2.4 1.2v36.8c0 .5.4.7 2.8 1l1.8.3.2 1.1h-16.4l.1-1zM425.5 49.1l1.6-.2c2.9-.3 3.5-1.4 3.6-6l.7-30.4c-.7-1.6-1.8-2.4-3.3-2.7l-2-.3-.1-1.1h13l8.7 30h.2l8.8-30h13l-.2 1.1-2.9.3c-1.5.1-2.2.8-2.2 1.4l.6 33.1c0 3.6.4 4.1 2.6 4.4l2 .3.2 1.1h-16.6l.2-1.1 2.6-.3c1.5-.2 2-1.1 1.9-4.5l-.6-32.4h-.3l-11.4 37.9h-1.8l-10.7-36.4c-.1-.3-.5-.7-.5-.8l-.6 30.8c-.2 4.3.5 5.3 3.8 5.6l1.6.2.2 1.1h-12.2l.1-1.1zM471.7 49.1l2-.3c1.7-.3 2.4-.7 2.4-1.2V10.7c0-.5-.3-.7-2.8-1l-1.5-.3-.2-1.1h28.2l.4 13.7h-1.4l-.5-2.2c-1.7-7.7-4.3-10.2-11.5-10.1l-3.6.1v18.3l2-.1c4.3-.2 6.2-1.3 7.1-5l.6-2.1h1.1l-1.3 16-1.1-.1-.2-2.1c-.3-3.9-1.5-5-6.5-5.3l-1.6-.1v19l4.5.2c7.5-.1 10.4-3.8 12.3-10.3l.5-2h1.4l-1.4 13.7h-28.9v-.8zM503.9 48.8l-.6-11.3h1.3l2.3 6.6c2 3.7 4.6 5.5 8.1 5.5 4.5-.1 7.1-3.4 7.1-8.1 0-5.5-3.6-7.5-8.3-9.5-5.3-2.3-9.6-5.1-9.6-12.1 0-6.7 4.5-12.3 11.6-12.3 3 0 5.5.7 7.5 1.4l2.4-.9.2 12.3h-1.2l-3.9-9.6c-1.3-1-2.9-1.7-5.1-1.7-3.7 0-6.2 2.9-6.2 6.6 0 4.8 3.5 6.6 7.8 8.5 5.9 2.5 10.2 5.5 10.2 13.2 0 7.1-5 13.7-12.8 13.7-4.3 0-7.8-1-10.8-2.3z"/></svg>
