<svg width="231" height="64" viewBox="0 0 231 64" fill="none" xmlns="http://www.w3.org/2000/svg">
<rect x="0.929199" width="230" height="64" rx="4" fill="#ED1D26"/>
<path d="M39.5188 18.3919C39.1713 18.4196 38.7632 18.4917 38.3055 18.6137C37.8422 18.7301 37.4396 18.9076 37.0921 19.1516C36.5958 19.4954 36.2097 19.8503 35.9339 20.2218C35.6637 20.5878 35.388 21.0758 35.1122 21.6802C34.7096 22.634 34.1581 23.9815 33.4521 25.7172C32.7462 27.4584 31.9741 29.3826 31.1413 31.4898C30.3085 33.6026 29.4481 35.7819 28.5657 38.0388C27.6833 40.2957 26.8671 42.3974 26.1225 44.3494H23.1002C22.2288 41.7375 21.4071 39.2588 20.6184 36.9076C19.8353 34.5619 19.1073 32.4048 18.4344 30.4418C17.7671 28.4787 17.1659 26.7375 16.642 25.2181C16.1181 23.7043 15.6989 22.4787 15.3735 21.5582C15.1474 20.9261 14.8992 20.4381 14.6234 20.0943C14.3477 19.7505 13.9616 19.4233 13.4653 19.1072C13.1178 18.8965 12.7318 18.7246 12.3071 18.5915C11.8824 18.4584 11.4467 18.3808 11 18.3531V17.0055H24.843V18.3087C24.0709 18.4196 23.4587 18.5139 22.9954 18.6081C22.5377 18.7024 22.1792 18.8022 21.931 18.902C21.6828 19.0074 21.5119 19.1128 21.4291 19.2181C21.3409 19.3235 21.2968 19.4288 21.2968 19.5397C21.2968 19.8004 21.3574 20.1608 21.4843 20.6044C21.76 21.5527 22.3667 23.4824 23.3153 26.3993C24.2584 29.3161 25.4386 32.9871 26.8615 37.4177C28.0308 34.573 29.0345 32.0444 29.8838 29.8429C30.7277 27.6414 31.4887 25.6396 32.1616 23.8429C32.2884 23.4991 32.4098 23.1442 32.5366 22.7782C32.6635 22.4067 32.7683 22.0518 32.851 21.7079C32.9392 21.3641 33.0164 21.037 33.0771 20.7375C33.1378 20.4381 33.1709 20.1941 33.1709 20.0111C33.1709 19.7227 33.0385 19.4732 32.7793 19.2791C32.5146 19.0795 32.1781 18.9242 31.77 18.8078C31.3619 18.6858 30.9041 18.597 30.4078 18.5305C29.9114 18.464 29.4095 18.4251 28.9132 18.3919V17.0111H39.5133V18.3919H39.5188Z" fill="white"/>
<path d="M48.2879 44.0333V42.8078C48.8339 42.7523 49.2971 42.6636 49.6666 42.5305C49.9424 42.3974 50.1189 42.1867 50.2071 41.8983C50.2954 41.61 50.3395 41.2384 50.3395 40.7948V31.9667C50.3395 30.647 50.1134 29.6488 49.6666 28.9612C49.2199 28.2736 48.685 27.9298 48.0617 27.9298C47.5433 27.9298 47.069 28.024 46.6444 28.207C46.2197 28.39 45.8612 28.6118 45.5634 28.8558C45.2656 29.1109 45.0229 29.3771 44.8354 29.6654C44.6479 29.9538 44.5155 30.22 44.4438 30.4584V40.5896C44.4438 41.4603 44.6975 42.0425 45.1939 42.3253C45.591 42.5915 46.0542 42.7468 46.5782 42.8022V44.0277H36.502V42.8022C36.8495 42.7745 37.1418 42.7412 37.3789 42.7024C37.6161 42.6636 37.8698 42.6081 38.1455 42.525C38.493 42.3919 38.7412 42.1811 38.8901 41.8928C39.039 41.6044 39.1162 41.2329 39.1162 40.7893V29.7431C39.0665 29.3216 38.9618 28.9168 38.7963 28.5397C38.6364 28.1571 38.4047 27.8577 38.1069 27.6525C37.8808 27.4917 37.605 27.3697 37.2686 27.2754C36.9322 27.1811 36.5903 27.1257 36.2428 27.098V25.9113L44.1901 25.4344L44.4493 25.7116V28.4011H44.5265C44.874 28.0351 45.238 27.658 45.6075 27.2754C45.977 26.8928 46.4017 26.5434 46.876 26.2274C47.3503 25.9113 47.8853 25.6506 48.4809 25.4566C49.0765 25.2569 49.7714 25.1571 50.5711 25.1571C52.3139 25.1571 53.61 25.7283 54.4538 26.8595C55.2976 27.9963 55.7223 29.5102 55.7223 31.4122V40.634C55.7223 41.0776 55.7829 41.4436 55.9098 41.7209C56.0311 41.9982 56.2683 42.2144 56.6157 42.3752C56.886 42.5083 57.1452 42.6081 57.3823 42.6691C57.6195 42.7357 57.9118 42.78 58.2592 42.8133V44.0388H48.2934L48.2879 44.0333Z" fill="white"/>
<path d="M83.8219 44.0333H59.5608V42.6913C59.7318 42.6913 59.9579 42.6802 60.2337 42.6525C60.5039 42.6248 60.7907 42.5915 61.094 42.5527C61.3918 42.5139 61.6731 42.4695 61.9323 42.414C62.1915 42.3641 62.3846 42.3087 62.5114 42.2588C62.9581 42.0758 63.267 41.8152 63.4269 41.488C63.5869 41.1553 63.6696 40.7671 63.6696 40.3179V20.9649C63.6696 20.5157 63.5924 20.1275 63.4435 19.817C63.2946 19.5009 62.9802 19.2348 62.5114 19.024C62.3349 18.9409 62.1088 18.8632 61.8386 18.7856C61.5628 18.7024 61.2926 18.6414 61.0168 18.586C60.7466 18.536 60.4763 18.4806 60.2116 18.4251C59.9524 18.3752 59.7318 18.3475 59.5608 18.3475V17H82.2887V23.8817H80.9099C80.761 23.4325 80.5349 22.9279 80.2371 22.3623C79.9393 21.7967 79.5918 21.2588 79.1892 20.7375C78.7921 20.2218 78.3619 19.7837 77.8987 19.4177C77.4354 19.0462 76.9997 18.8355 76.575 18.7856C76.1283 18.7301 75.6485 18.6858 75.1411 18.647C74.6337 18.6081 74.0767 18.586 73.481 18.586H69.8962V29.1941H72.4001C73.4479 29.1941 74.198 29.0555 74.6558 28.7726C75.119 28.4954 75.4554 28.2403 75.6816 28.0074C75.8305 27.8466 75.9794 27.6248 76.1283 27.3364C76.2772 27.0425 76.4151 26.732 76.5364 26.4048C76.6633 26.0776 76.7736 25.7394 76.8728 25.3956C76.9721 25.0573 77.0328 24.7523 77.0604 24.4861H78.4447V35.7653H77.0604C77.0383 35.4769 76.9721 35.1442 76.8728 34.7782C76.7736 34.4067 76.6578 34.0351 76.5199 33.6691C76.382 33.2976 76.2331 32.9649 76.0731 32.6765C75.9132 32.3882 75.7808 32.1774 75.6816 32.0444C75.4334 31.756 75.0804 31.4843 74.6171 31.2348C74.1539 30.9852 73.4148 30.8577 72.4001 30.8577H69.8962V38.8152C69.8962 39.6303 69.9458 40.2791 70.0451 40.7505C70.1444 41.2218 70.3484 41.5878 70.6628 41.8373C70.9772 42.0869 71.4129 42.2477 71.9864 42.3142C72.56 42.3808 73.3156 42.414 74.2642 42.414H75.7367C76.2717 42.414 76.7901 42.3808 77.2865 42.3142C77.7828 42.2477 78.2406 42.1479 78.6653 42.0203C79.0899 41.8872 79.4098 41.7042 79.6359 41.4658C79.9337 41.1497 80.2536 40.7172 80.59 40.1793C80.9265 39.6359 81.2574 39.0758 81.5772 38.4935C81.9026 37.9113 82.1894 37.3623 82.4376 36.8355C82.6858 36.3087 82.8733 35.8983 82.9947 35.61H84.3017L83.8164 44.0333H83.8219Z" fill="white"/>
<path d="M102.706 39.3641C102.38 40.1017 101.972 40.7893 101.476 41.4214C100.98 42.0536 100.411 42.6137 99.7772 43.085C99.143 43.5564 98.4426 43.9335 97.6704 44.2163C96.8983 44.4935 96.0766 44.6322 95.2052 44.6322C93.6334 44.6322 92.2821 44.3826 91.135 43.878C89.9934 43.3789 89.0392 42.6913 88.2782 41.8207C87.5226 40.9501 86.9545 39.9131 86.5795 38.7153C86.2045 37.5176 86.0225 36.2144 86.0225 34.817C86.0225 33.5527 86.2431 32.3383 86.6732 31.1738C87.1089 30.0148 87.7322 28.9945 88.5374 28.1072C89.3481 27.2255 90.3353 26.5102 91.5045 25.9723C92.6737 25.4344 93.9918 25.1627 95.4644 25.1627C97.7035 25.1627 99.3581 25.6118 100.428 26.5102C101.498 27.4085 102.033 28.5287 102.033 29.8706C102.033 30.7412 101.823 31.451 101.399 31.9889C100.974 32.5323 100.268 32.7985 99.2698 32.7985C98.972 32.7985 98.6521 32.7542 98.3157 32.6599C97.9793 32.5656 97.6649 32.4325 97.3616 32.244C97.0638 32.061 96.8156 31.817 96.617 31.512C96.4185 31.207 96.3192 30.8466 96.3192 30.4251C96.3192 30.0259 96.3468 29.7209 96.413 29.4935C96.4737 29.2717 96.5398 29.0776 96.617 28.9002C96.6887 28.7283 96.7604 28.5786 96.8211 28.4455C96.8818 28.3124 96.9093 28.1571 96.9093 27.9741C96.8597 27.525 96.7494 27.1811 96.5729 26.9482C96.402 26.7098 96.0269 26.5878 95.4589 26.5878C94.9846 26.5878 94.5323 26.7264 94.0966 27.0037C93.6609 27.281 93.2749 27.7357 92.944 28.3678C92.6075 29 92.3428 29.8262 92.1387 30.841C91.9402 31.8558 91.8409 33.1035 91.8409 34.5786C91.8409 35.6876 91.9567 36.6913 92.1939 37.6007C92.431 38.5102 92.762 39.2976 93.1811 39.9575C93.6058 40.6174 94.1021 41.1275 94.6757 41.4824C95.2493 41.8373 95.8725 42.0148 96.5398 42.0148C97.7587 42.0148 98.7349 41.6876 99.4684 41.0444C100.202 40.3956 100.869 39.5194 101.465 38.4104L102.695 39.3586L102.706 39.3641Z" fill="white"/>
<path d="M122.786 34.7726C122.786 36.1423 122.582 37.4288 122.169 38.6322C121.761 39.8299 121.148 40.8725 120.343 41.7542C119.532 42.6414 118.529 43.3346 117.321 43.8503C116.113 44.366 114.712 44.6211 113.124 44.6211C111.828 44.6211 110.614 44.3993 109.484 43.9501C108.353 43.5009 107.361 42.8632 106.5 42.0314C105.645 41.1996 104.961 40.1848 104.465 38.9871C103.963 37.7837 103.721 36.4196 103.721 34.8891C103.721 33.464 103.947 32.1553 104.393 30.9519C104.84 29.7542 105.474 28.7227 106.296 27.8632C107.118 27.0037 108.116 26.3438 109.302 25.8614C110.482 25.39 111.806 25.1516 113.278 25.1516C114.751 25.1516 116.108 25.39 117.293 25.8614C118.474 26.3438 119.472 27.0037 120.277 27.8632C121.088 28.7172 121.705 29.7375 122.141 30.9131C122.577 32.0887 122.797 33.3752 122.797 34.7726H122.786ZM116.847 34.7338C116.847 33.7079 116.797 32.7043 116.698 31.7227C116.598 30.7468 116.411 29.8706 116.135 29.0943C115.865 28.3179 115.495 27.6969 115.038 27.2311C114.574 26.7708 114.001 26.5434 113.3 26.5434C112.556 26.5434 111.938 26.7874 111.453 27.2754C110.967 27.7634 110.598 28.3956 110.333 29.1719C110.068 29.9538 109.892 30.8189 109.793 31.7837C109.693 32.7486 109.644 33.7079 109.644 34.6562C109.644 35.8207 109.704 36.9187 109.831 37.9612C109.953 39.0037 110.157 39.9131 110.443 40.6895C110.73 41.4713 111.105 42.0869 111.563 42.5471C112.021 43.0074 112.6 43.2403 113.3 43.2403C113.946 43.2403 114.492 43.0185 114.944 42.5693C115.391 42.1257 115.76 41.5102 116.041 40.7505C116.328 39.9852 116.532 39.0869 116.659 38.061C116.786 37.0351 116.847 35.9261 116.847 34.7394V34.7338Z" fill="white"/>
<path d="M136.591 42.8078C137.137 42.7523 137.6 42.6636 137.975 42.5305C138.245 42.3974 138.427 42.1867 138.516 41.8983C138.604 41.61 138.648 41.2384 138.648 40.7948V31.9667C138.648 30.647 138.422 29.6488 137.975 28.9612C137.528 28.2736 136.988 27.9298 136.37 27.9298C135.852 27.9298 135.377 28.024 134.953 28.207C134.534 28.39 134.17 28.6118 133.872 28.8558C133.574 29.1109 133.331 29.3771 133.144 29.6654C132.956 29.9538 132.824 30.22 132.752 30.4584V40.5896C132.752 41.4603 133 42.0425 133.497 42.3253C133.894 42.5915 134.357 42.7468 134.881 42.8022V44.0277H124.805V42.8022C125.152 42.7745 125.445 42.7412 125.682 42.7024C125.919 42.6636 126.173 42.6081 126.448 42.525C126.796 42.3919 127.044 42.1811 127.193 41.8928C127.342 41.6044 127.419 41.2329 127.419 40.7893V29.7431C127.369 29.3216 127.259 28.9168 127.099 28.5397C126.939 28.1627 126.708 27.8577 126.41 27.6525C126.184 27.4917 125.908 27.3697 125.572 27.2754C125.235 27.1811 124.893 27.1257 124.546 27.098V25.9113L132.493 25.4344L132.752 25.7116V28.4011H132.824C133.171 28.0351 133.535 27.658 133.905 27.2754C134.28 26.8928 134.705 26.5434 135.173 26.2274C135.648 25.9113 136.183 25.6506 136.778 25.4566C137.374 25.2569 138.069 25.1571 138.869 25.1571C140.611 25.1571 141.902 25.7283 142.751 26.8595C143.595 27.9963 144.02 29.5102 144.02 31.4122V40.634C144.02 41.0776 144.08 41.4436 144.207 41.7209C144.334 41.9982 144.566 42.2144 144.913 42.3752C145.189 42.5083 145.443 42.6081 145.68 42.6691C145.917 42.7357 146.209 42.78 146.557 42.8133V44.0388H136.591V42.8078Z" fill="white"/>
<path d="M167.233 34.7726C167.233 36.1423 167.023 37.4288 166.615 38.6322C166.207 39.8299 165.595 40.8725 164.79 41.7542C163.984 42.6414 162.975 43.3346 161.767 43.8503C160.56 44.366 159.164 44.6211 157.57 44.6211C156.274 44.6211 155.061 44.3993 153.93 43.9501C152.8 43.5009 151.802 42.8632 150.947 42.0314C150.086 41.1996 149.408 40.1848 148.906 38.9871C148.41 37.7837 148.162 36.4196 148.162 34.8891C148.162 33.464 148.382 32.1553 148.829 30.9519C149.276 29.7542 149.915 28.7227 150.732 27.8632C151.553 27.0037 152.557 26.3438 153.737 25.8614C154.918 25.39 156.241 25.1516 157.708 25.1516C159.175 25.1516 160.538 25.39 161.718 25.8614C162.898 26.3438 163.896 27.0037 164.701 27.8632C165.512 28.7172 166.135 29.7375 166.566 30.9131C167.001 32.0887 167.222 33.3752 167.222 34.7726H167.233ZM161.299 34.7338C161.299 33.7079 161.249 32.7043 161.15 31.7227C161.05 30.7468 160.863 29.8706 160.593 29.0943C160.322 28.3179 159.953 27.6969 159.495 27.2311C159.032 26.7708 158.458 26.5434 157.758 26.5434C157.013 26.5434 156.396 26.7874 155.91 27.2754C155.425 27.7634 155.055 28.3956 154.791 29.1719C154.526 29.9538 154.35 30.8189 154.25 31.7837C154.151 32.7486 154.101 33.7079 154.101 34.6562C154.101 35.8207 154.162 36.9187 154.289 37.9612C154.416 39.0037 154.62 39.9131 154.901 40.6895C155.188 41.4713 155.563 42.0869 156.021 42.5471C156.478 43.0074 157.057 43.2403 157.758 43.2403C158.403 43.2403 158.955 43.0185 159.401 42.5693C159.848 42.1257 160.218 41.5102 160.504 40.7505C160.791 39.9908 160.995 39.0869 161.122 38.061C161.243 37.0351 161.31 35.9261 161.31 34.7394L161.299 34.7338Z" fill="white"/>
<path d="M191.941 44.0333V42.8078C192.487 42.7523 192.95 42.6636 193.32 42.5305C193.59 42.3974 193.761 42.1867 193.821 41.8983C193.882 41.61 193.915 41.2384 193.915 40.7948V31.9667C193.915 30.647 193.711 29.6488 193.297 28.9612C192.889 28.2736 192.371 27.9298 191.748 27.9298C191.224 27.9298 190.76 28.0129 190.347 28.1848C189.939 28.3567 189.591 28.5675 189.321 28.817C189.045 29.0721 188.819 29.3327 188.632 29.61C188.444 29.8928 188.317 30.1423 188.24 30.3808V40.5896C188.24 41.0333 188.29 41.3993 188.389 41.6765C188.488 41.9538 188.676 42.1756 188.946 42.3253C189.371 42.6192 189.79 42.7745 190.214 42.8022V44.0277H180.883V42.8022C181.429 42.7468 181.892 42.658 182.267 42.525C182.537 42.3919 182.708 42.1811 182.769 41.8928C182.83 41.6044 182.863 41.2329 182.863 40.7893V31.9612C182.863 30.6414 182.659 29.6433 182.245 28.9556C181.837 28.268 181.319 27.9242 180.701 27.9242C180.177 27.9242 179.708 28.0074 179.3 28.1793C178.892 28.3512 178.55 28.5619 178.274 28.8115C178.004 29.0665 177.772 29.3272 177.585 29.6044C177.397 29.8872 177.27 30.1368 177.193 30.3752V40.5841C177.193 41.0277 177.243 41.3937 177.342 41.671C177.441 41.9482 177.629 42.1701 177.899 42.3198C178.318 42.6137 178.748 42.7689 179.168 42.7967V44.0222H169.24V42.7967C169.588 42.7689 169.88 42.7357 170.117 42.6969C170.354 42.658 170.608 42.6026 170.884 42.5194C171.231 42.3863 171.48 42.1756 171.628 41.8872C171.777 41.5989 171.855 41.2274 171.855 40.7837V29.7375C171.805 29.3161 171.695 28.9113 171.535 28.5342C171.375 28.1516 171.143 27.8521 170.845 27.6469C170.619 27.4861 170.343 27.3641 170.001 27.2699C169.671 27.1756 169.323 27.1201 168.981 27.0924V25.9057L176.929 25.4288L177.188 25.7061V28.3179H177.265C177.612 27.9464 177.965 27.5749 178.329 27.2089C178.688 26.8373 179.101 26.4991 179.559 26.1996C180.022 25.9002 180.546 25.6451 181.126 25.451C181.71 25.2514 182.4 25.1516 183.199 25.1516C184.418 25.1516 185.427 25.4566 186.222 26.061C187.016 26.671 187.589 27.4861 187.937 28.5176H188.086C188.461 28.1183 188.847 27.7246 189.244 27.3309C189.641 26.9372 190.088 26.5712 190.567 26.244C191.053 25.9113 191.599 25.6506 192.211 25.451C192.818 25.2514 193.524 25.1516 194.318 25.1516C196.061 25.1516 197.323 25.7338 198.107 26.8928C198.89 28.0518 199.281 29.5823 199.281 31.4787V40.6229C199.281 41.0665 199.342 41.4325 199.469 41.7098C199.596 41.9871 199.827 42.2033 200.175 42.3641C200.445 42.4972 200.704 42.597 200.941 42.658C201.179 42.7246 201.471 42.7689 201.818 42.8022V44.0277H191.93L191.941 44.0333Z" fill="white"/>
<path d="M220.978 26.8207C220.476 26.9261 219.98 27.1479 219.483 27.4917C218.987 27.8355 218.59 28.3623 218.292 29.0721C217.641 30.6303 217.024 32.1719 216.428 33.7024C215.832 35.2274 215.27 36.6802 214.751 38.0499C214.227 39.4251 213.753 40.6673 213.334 41.7874C212.915 42.9076 212.54 43.8503 212.214 44.6155C211.393 46.5675 210.659 48.098 210.014 49.2015C209.363 50.3105 208.745 51.1479 208.15 51.7135C207.549 52.2791 206.964 52.634 206.396 52.7837C205.822 52.9279 205.205 53 204.532 53C204.212 53 203.848 52.9445 203.451 52.8225C203.054 52.7061 202.684 52.5065 202.348 52.2292C202.011 51.9519 201.725 51.6026 201.487 51.1811C201.25 50.7597 201.134 50.2329 201.134 49.6007C201.134 49.2569 201.195 48.9131 201.322 48.5693C201.449 48.2255 201.62 47.9094 201.846 47.6211C202.072 47.3327 202.348 47.0887 202.684 46.9057C203.021 46.7227 203.401 46.6285 203.826 46.6285C204.074 46.6285 204.35 46.6673 204.648 46.7449C204.945 46.8226 205.227 46.9556 205.486 47.1386C205.745 47.3272 205.96 47.5767 206.12 47.9094C206.28 48.2421 206.363 48.658 206.363 49.1571V50.3826C206.859 50.2773 207.345 49.9889 207.813 49.512C208.288 49.0351 208.718 48.5028 209.104 47.9094C209.49 47.3161 209.826 46.7172 210.108 46.1072C210.394 45.5028 210.609 44.9982 210.758 44.6044C210.29 43.5231 209.722 42.2144 209.065 40.6895C208.403 39.159 207.742 37.6285 207.069 36.098C206.396 34.5675 205.773 33.1423 205.205 31.8226C204.631 30.5028 204.201 29.5157 203.898 28.8558C203.671 28.3512 203.307 27.9187 202.795 27.5471C202.287 27.1811 201.758 26.9538 201.206 26.8762V25.6451H211.508V26.915C211.288 26.915 211.051 26.9316 210.803 26.9704C210.554 27.0092 210.323 27.0702 210.113 27.1479C209.898 27.2255 209.727 27.3198 209.589 27.4251C209.451 27.5305 209.385 27.6636 209.385 27.8189C209.385 27.9242 209.473 28.2015 209.644 28.6506C209.992 29.549 210.494 30.7689 211.155 32.3105C211.817 33.8521 212.545 35.5656 213.339 37.4344H213.566C213.863 36.6913 214.128 36.0203 214.349 35.4159C214.575 34.8059 214.795 34.2015 215.022 33.5915C215.242 32.9871 215.479 32.3494 215.733 31.6895C215.981 31.0296 216.268 30.2643 216.593 29.3993C216.643 29.2662 216.687 29.0887 216.726 28.8669C216.764 28.6451 216.781 28.451 216.781 28.2902C216.781 28.0795 216.676 27.8854 216.467 27.7135C216.257 27.5416 216.009 27.3919 215.717 27.2588C215.43 27.1257 215.143 27.0314 214.856 26.9593C214.569 26.8928 214.354 26.8484 214.205 26.8207V25.634H221V26.7819L220.978 26.8207Z" fill="white"/>
</svg>
